<svg xmlns="http://www.w3.org/2000/svg" width="1600" height="900" viewBox="0 0 1600 900">
<defs>
  <linearGradient id="bg" x1="0" x2="1" y1="0" y2="1"><stop offset="0" stop-color="#ffffff"/><stop offset="1" stop-color="#f4f9ff"/></linearGradient>
  <style>
    .title{font:700 42px Arial,sans-serif;fill:#111936}.blue{fill:#1558c8}.sub{font:400 24px Arial,sans-serif;fill:#596987}.head{font:700 20px Arial,sans-serif;fill:#111936}.body{font:400 16px Arial,sans-serif;fill:#243453}.small{font:400 14px Arial,sans-serif;fill:#4d5f80}.card{stroke:#dbe7f6;stroke-width:1}
  </style>
</defs>
<rect width="1600" height="900" fill="url(#bg)"/>
<g transform="translate(48,35)"><path d="M0 18 Q35 0 68 18 V70 Q35 52 0 70Z" fill="none" stroke="#1464d8" stroke-width="8"/><path d="M68 18 Q103 0 138 18 V70 Q103 52 68 70Z" fill="none" stroke="#1464d8" stroke-width="8"/></g>
<text x="145" y="62" class="title" font-size="30">Engineering</text><text x="145" y="94" class="title" font-size="30">Journal</text>
<text x="145" y="119" class="small" letter-spacing="4">PRACTICAL NOTES FOR BETTER SOFTWARE</text>
<text x="1350" y="62" class="sub" font-style="italic">Build</text><text x="1430" y="62" class="sub" font-style="italic">Learn</text><text x="1510" y="62" class="sub" font-style="italic">Share</text>
<path d="M55 145H160" stroke="#2475df" stroke-width="5"/>
<text x="52" y="205" class="title"><tspan class="blue">AI Coding Agents</tspan><tspan> in the Software Development Workflow</tspan></text>
<text x="52" y="242" class="sub">AI can accelerate implementation. Engineering responsibility still stays with humans.</text>
<g transform="translate(28,280)">
<rect x="0" y="0" width="245" height="330" rx="20" fill="#eaf5ff" class="card"/><rect x="255" y="0" width="245" height="330" rx="20" fill="#f1edff" class="card"/><rect x="510" y="0" width="245" height="330" rx="20" fill="#eafaf2" class="card"/><rect x="765" y="0" width="245" height="330" rx="20" fill="#fff8df" class="card"/><rect x="1020" y="0" width="245" height="330" rx="20" fill="#fff0f2" class="card"/><rect x="1275" y="0" width="245" height="330" rx="20" fill="#eafaf2" class="card"/>
<g font-family="Arial" font-weight="700" font-size="19" text-anchor="middle"><circle cx="35" cy="34" r="20" fill="#1261d1"/><text x="35" y="41" fill="#fff">1</text><circle cx="290" cy="34" r="20" fill="#5130d6"/><text x="290" y="41" fill="#fff">2</text><circle cx="545" cy="34" r="20" fill="#159a67"/><text x="545" y="41" fill="#fff">3</text><circle cx="800" cy="34" r="20" fill="#ee9010"/><text x="800" y="41" fill="#fff">4</text><circle cx="1055" cy="34" r="20" fill="#ef4c58"/><text x="1055" y="41" fill="#fff">5</text><circle cx="1310" cy="34" r="20" fill="#159a67"/><text x="1310" y="41" fill="#fff">6</text></g>
<g class="head"><text x="62" y="41">Developer</text><text x="317" y="41">AI Coding Agent</text><text x="572" y="41">Codebase</text><text x="827" y="41">Tests &amp; CI/CD</text><text x="1082" y="41">Human Review</text><text x="1337" y="41">Production</text></g>
<g opacity=".9"><rect x="48" y="75" width="150" height="88" rx="10" fill="#fff" stroke="#aac6e8"/><rect x="62" y="90" width="122" height="58" rx="5" fill="#17284b"/><path d="M83 116h55M83 128h78M83 140h42" stroke="#69aaf3" stroke-width="4"/></g>
<g transform="translate(303,72)"><rect x="70" y="20" width="100" height="85" rx="16" fill="#fff" stroke="#b8a9ef"/><circle cx="120" cy="61" r="22" fill="#2d75df"/><circle cx="112" cy="58" r="4" fill="#fff"/><circle cx="128" cy="58" r="4" fill="#fff"/><path d="M112 70q8 7 16 0" stroke="#fff" stroke-width="3" fill="none"/><path d="M120 20V4" stroke="#4d35c6" stroke-width="4"/><circle cx="120" cy="2" r="6" fill="#4d35c6"/><rect x="0" y="90" width="70" height="65" rx="8" fill="#fff" stroke="#b8a9ef"/></g>
<g transform="translate(550,74)"><rect x="15" y="10" width="140" height="110" rx="10" fill="#fff" stroke="#82d3b1"/><path d="M35 38h70M35 58h95M35 78h78" stroke="#b0c6d9" stroke-width="8"/><rect x="105" y="70" width="65" height="65" rx="12" fill="#2f74dc"/><path d="M125 87v32M125 104h18M125 104l12-12" stroke="#fff" stroke-width="4"/></g>
<g transform="translate(808,78)"><rect x="10" y="15" width="150" height="105" rx="12" fill="#fff" stroke="#ead99e"/><path d="M32 45l10 10 18-23M32 76l10 10 18-23M32 107l10 10 18-23" stroke="#18a36a" stroke-width="5" fill="none"/><circle cx="112" cy="80" r="25" fill="#263c68"/><circle cx="145" cy="110" r="15" fill="#344f80"/></g>
<g transform="translate(1063,72)"><rect x="15" y="15" width="165" height="112" rx="12" fill="#fff" stroke="#f3b1b9"/><circle cx="64" cy="70" r="28" fill="#f5a18a"/><path d="M39 98q25-38 50 0" fill="#1b2a4b"/><path d="M105 48h52M105 67h65M105 86h50" stroke="#73a8e5" stroke-width="7"/></g>
<g transform="translate(1320,75)"><path d="M20 65q0-30 35-30 20-30 50 0 35-5 35 30 0 30-45 30H55Q20 95 20 65Z" fill="#9ed3ff" stroke="#5599df" stroke-width="3"/><rect x="45" y="103" width="90" height="36" rx="6" fill="#20395f"/><rect x="58" y="113" width="20" height="5" fill="#5bb2ff"/><rect x="58" y="123" width="42" height="5" fill="#5bb2ff"/></g>
<g class="body">
<text x="25" y="195">• Define the problem</text><text x="25" y="222">• Set goals and context</text><text x="25" y="249">• Provide requirements</text><text x="25" y="276">• Guide the agent</text>
<text x="280" y="195">• Understands context</text><text x="280" y="222">• Writes and modifies code</text><text x="280" y="249">• Works across multiple files</text><text x="280" y="276">• Suggests improvements</text><text x="280" y="303">• Runs and fixes issues</text>
<text x="535" y="195">• New features</text><text x="535" y="222">• Refactoring</text><text x="535" y="249">• Bug fixes</text><text x="535" y="276">• Documentation</text><text x="535" y="303">• Tests</text>
<text x="790" y="195">• Automated tests</text><text x="790" y="222">• Code quality checks</text><text x="790" y="249">• Security scanning</text><text x="790" y="276">• Build and deployment</text><text x="790" y="303">• Detects issues early</text>
<text x="1045" y="195">• Review AI-generated code</text><text x="1045" y="222">• Validate design choices</text><text x="1045" y="249">• Check security and risks</text><text x="1045" y="276">• Ensure code quality</text><text x="1045" y="303">• Provide final approval</text>
<text x="1300" y="195">• Deploy to production</text><text x="1300" y="222">• Monitor behaviour</text><text x="1300" y="249">• Track performance</text><text x="1300" y="276">• Observe and learn</text><text x="1300" y="303">• Iterate and improve</text></g>
<g stroke="#2869c8" stroke-width="4" fill="none"><path d="M245 165h10l-7-7m7 7-7 7"/><path d="M500 165h10l-7-7m7 7-7 7"/><path d="M755 165h10l-7-7m7 7-7 7"/><path d="M1010 165h10l-7-7m7 7-7 7"/><path d="M1265 165h10l-7-7m7 7-7 7"/></g>
</g>
<text x="640" y="642" class="sub" font-size="18">Feedback and continuous improvement</text>
<rect x="20" y="670" width="1560" height="205" rx="24" fill="#eaf5ff" stroke="#d6e6f7"/>
<text x="625" y="707" class="title" font-size="26">Human Judgment and Responsibility</text><text x="625" y="734" class="small">AI can implement. Humans set direction, make decisions, and take responsibility.</text>
<g transform="translate(30,750)">
<g><rect width="245" height="105" rx="15" fill="#fff"/><text x="20" y="32" class="head">Requirements</text><text x="20" y="61" class="small">• Define business needs</text><text x="20" y="82" class="small">  and user impact</text></g>
<g transform="translate(255)"><rect width="245" height="105" rx="15" fill="#fff"/><text x="20" y="32" class="head">Architecture</text><text x="20" y="61" class="small">• Design system structure</text><text x="20" y="82" class="small">  and trade-offs</text></g>
<g transform="translate(510)"><rect width="245" height="105" rx="15" fill="#fff"/><text x="20" y="32" class="head">Security</text><text x="20" y="61" class="small">• Identify risks and validate</text><text x="20" y="82" class="small">  dependencies</text></g>
<g transform="translate(765)"><rect width="245" height="105" rx="15" fill="#fff"/><text x="20" y="32" class="head">Code Review</text><text x="20" y="61" class="small">• Review logic and bias</text><text x="20" y="82" class="small">  and ensure quality</text></g>
<g transform="translate(1020)"><rect width="245" height="105" rx="15" fill="#fff"/><text x="20" y="32" class="head">Testing Strategy</text><text x="20" y="61" class="small">• Define coverage and</text><text x="20" y="82" class="small">  critical scenarios</text></g>
<g transform="translate(1275)"><rect width="245" height="105" rx="15" fill="#fff"/><text x="20" y="32" class="head">Final Decision</text><text x="20" y="61" class="small">• Own what goes to</text><text x="20" y="82" class="small">  production</text></g>
</g>
</svg>